<svg width="26" height="26" viewBox="0 0 26 26" fill="none" xmlns="http://www.w3.org/2000/svg">
<path d="M22.3434 15.2356C21.13 15.1049 20.122 14.8343 19.3194 14.4236C18.7407 14.1996 18.148 14.1576 17.5414 14.2976C16.9347 14.4376 16.398 14.7129 15.9314 15.1236L14.8674 16.2996C12.5154 14.7689 10.574 12.8276 9.04338 10.4756L10.1074 9.4116C10.5554 8.9636 10.84 8.43626 10.9614 7.8296C11.0827 7.22293 11.0314 6.62093 10.8074 6.0236C10.4714 5.14627 10.238 4.13827 10.1074 2.9996C9.97672 2.23427 9.59872 1.59493 8.97338 1.0816C8.34805 0.568265 7.63405 0.311599 6.83138 0.311599H3.10738C2.52872 0.348932 2.01072 0.535599 1.55338 0.871599C1.09605 1.2076 0.741382 1.63693 0.489382 2.1596C0.237382 2.68227 0.130049 3.23293 0.167382 3.8116C0.354049 5.67826 0.764715 7.50293 1.39938 9.2856C2.03405 11.0683 2.87405 12.7436 3.91938 14.3116C5.78605 17.2609 8.19405 19.6689 11.1434 21.5356C12.73 22.5249 14.41 23.3369 16.1834 23.9716C17.9567 24.6063 19.7767 25.0449 21.6434 25.2876H22.0074C22.3994 25.2876 22.7914 25.2036 23.1834 25.0356C23.5754 24.8676 23.9207 24.6389 24.2194 24.3496C24.518 24.0603 24.7467 23.7196 24.9054 23.3276C25.064 22.9356 25.1434 22.5343 25.1434 22.1236V18.6236C25.1434 17.7649 24.882 17.0183 24.3594 16.3836C23.8367 15.7489 23.1647 15.3663 22.3434 15.2356ZM23.2674 18.5116V22.0116C23.2674 22.4036 23.118 22.7583 22.8194 23.0756C22.4834 23.3743 22.1287 23.5236 21.7554 23.5236H21.6434C19.926 23.3556 18.2554 22.9823 16.6314 22.4036C14.9514 21.8063 13.3927 21.0129 11.9554 20.0236C10.63 19.1649 9.39338 18.1616 8.24538 17.0136C7.09738 15.8656 6.08472 14.6196 5.20738 13.2756C4.27405 11.8196 3.51338 10.2703 2.92538 8.6276C2.33738 6.98493 1.93138 5.30493 1.70738 3.5876C1.76338 3.15827 1.93138 2.79893 2.21138 2.5096C2.49138 2.22027 2.82738 2.0756 3.21938 2.0756H6.83138C7.18605 2.0756 7.50805 2.2016 7.79738 2.4536C8.08672 2.7056 8.23138 2.9996 8.23138 3.3356C8.26872 3.82093 8.36205 4.36227 8.51138 4.9596C8.60472 5.33293 8.75405 5.87426 8.95938 6.5836L9.04338 6.8356C9.15538 7.13426 9.18338 7.41893 9.12738 7.6896C9.07138 7.96026 8.93138 8.18893 8.70738 8.3756L7.41938 9.7756C7.25138 9.8876 7.15338 10.0416 7.12538 10.2376C7.09738 10.4336 7.11138 10.6249 7.16738 10.8116C8.04472 12.3236 9.11338 13.7096 10.3734 14.9696C11.6334 16.2296 13.0194 17.2983 14.5314 18.1756C14.6994 18.2876 14.886 18.3249 15.0914 18.2876C15.2967 18.2503 15.4554 18.1663 15.5674 18.0356L17.1074 16.5236C17.294 16.3369 17.5367 16.2063 17.8354 16.1316C18.134 16.0569 18.3954 16.0756 18.6194 16.1876C19.702 16.6169 20.8687 16.8876 22.1194 16.9996C22.474 17.0556 22.7727 17.2376 23.0154 17.5456C23.258 17.8536 23.342 18.1756 23.2674 18.5116ZM14.8674 1.9356C16.3794 2.08493 17.7514 2.5516 18.9834 3.3356C20.2154 4.1196 21.2234 5.1276 22.0074 6.3596C22.7914 7.5916 23.258 8.9636 23.4074 10.4756C23.4074 10.6996 23.496 10.8909 23.6734 11.0496C23.8507 11.2083 24.0327 11.2876 24.2194 11.2876H24.3314C24.5554 11.2876 24.7467 11.1896 24.9054 10.9936C25.064 10.7976 25.1434 10.5783 25.1434 10.3356C24.9567 8.58093 24.3874 6.96627 23.4354 5.4916C22.5207 4.05427 21.3307 2.87827 19.8654 1.9636C18.4 1.04893 16.7807 0.498265 15.0074 0.311599C14.7647 0.311599 14.5454 0.390932 14.3494 0.549599C14.1534 0.708265 14.0554 0.890265 14.0554 1.0956C14.0554 1.30093 14.1347 1.49227 14.2934 1.6696C14.452 1.84693 14.6434 1.9356 14.8674 1.9356ZM14.0554 5.6876C13.9994 5.9116 14.046 6.12627 14.1954 6.3316C14.3447 6.53693 14.5314 6.6676 14.7554 6.7236C15.726 6.91026 16.5707 7.3676 17.2894 8.0956C18.008 8.8236 18.4887 9.6916 18.7314 10.6996C18.7874 10.9236 18.89 11.0963 19.0394 11.2176C19.1887 11.3389 19.3567 11.3996 19.5434 11.3996H19.6554C19.898 11.3436 20.0894 11.2129 20.2294 11.0076C20.3694 10.8023 20.4114 10.5783 20.3554 10.3356C20.1314 9.01026 19.5387 7.86226 18.5774 6.8916C17.616 5.92093 16.4634 5.28627 15.1194 4.9876C14.8767 4.9316 14.6527 4.96427 14.4474 5.0856C14.242 5.20693 14.1114 5.4076 14.0554 5.6876Z" fill="#111827"/>
</svg>
