<svg width="18" height="18" viewBox="0 0 18 18" fill="none" xmlns="http://www.w3.org/2000/svg">
<path d="M1.38016 8.73006C1.55349 8.73006 1.70682 8.66673 1.84016 8.54006C1.97349 8.41339 2.04016 8.25006 2.04016 8.05006V7.23006C2.04016 6.73673 2.16349 6.28673 2.41016 5.88006C2.65682 5.47339 2.98682 5.15006 3.40016 4.91006C3.81349 4.67006 4.25349 4.55006 4.72016 4.55006H14.8802L12.6402 6.81006C12.5068 6.93006 12.4402 7.08006 12.4402 7.26006C12.4402 7.44006 12.5068 7.59673 12.6402 7.73006C12.7468 7.83673 12.8802 7.89006 13.0402 7.89006C13.1202 7.89006 13.2002 7.87339 13.2802 7.84006C13.3602 7.80673 13.4202 7.77006 13.4602 7.73006L16.8002 4.39006C16.8268 4.36339 16.8535 4.33006 16.8802 4.29006C16.9068 4.25006 16.9335 4.23006 16.9602 4.23006C17.0402 4.05673 17.0402 3.89006 16.9602 3.73006C16.9602 3.67673 16.9435 3.63339 16.9102 3.60006C16.8768 3.56673 16.8402 3.55006 16.8002 3.55006L13.4602 0.230059C13.3402 0.0967253 13.1902 0.0300598 13.0102 0.0300598C12.8302 0.0300598 12.6735 0.0967253 12.5402 0.230059C12.4068 0.363392 12.3435 0.516726 12.3502 0.69006C12.3568 0.863393 12.4202 1.01006 12.5402 1.13006L14.8002 3.39006H4.72016C4.00016 3.39006 3.33349 3.56673 2.72016 3.92006C2.10682 4.27339 1.62016 4.75673 1.26016 5.37006C0.900156 5.98339 0.720156 6.65673 0.720156 7.39006V8.23006C0.720156 8.32339 0.790156 8.43006 0.930156 8.55006C1.07016 8.67006 1.22016 8.73006 1.38016 8.73006ZM16.3802 9.13006C16.2068 9.13006 16.0535 9.19339 15.9202 9.32006C15.7868 9.44673 15.7202 9.61006 15.7202 9.81006V10.6301C15.7202 11.1234 15.5968 11.5734 15.3502 11.9801C15.1035 12.3867 14.7735 12.7101 14.3602 12.9501C13.9468 13.1901 13.5068 13.3101 13.0402 13.3101H2.88016L5.14016 11.0501C5.26016 10.9301 5.32016 10.7801 5.32016 10.6001C5.32016 10.4201 5.26016 10.2634 5.14016 10.1301C5.02016 9.99673 4.86682 9.93339 4.68016 9.94006C4.49349 9.94673 4.34016 10.0101 4.22016 10.1301L0.880156 13.4701C0.85349 13.4967 0.826823 13.5301 0.800156 13.5701C0.77349 13.6101 0.746823 13.6301 0.720156 13.6301C0.640156 13.8034 0.640156 13.9701 0.720156 14.1301C0.720156 14.1834 0.736823 14.2267 0.770156 14.2601C0.80349 14.2934 0.840156 14.3101 0.880156 14.3101L4.22016 17.6501C4.32682 17.7567 4.46349 17.8101 4.63016 17.8101C4.79682 17.8101 4.93349 17.7567 5.04016 17.6501C5.17349 17.5167 5.24016 17.3601 5.24016 17.1801C5.24016 17.0001 5.17349 16.8501 5.04016 16.7301L2.80016 14.4701H13.0402C13.7602 14.4701 14.4268 14.2934 15.0402 13.9401C15.6535 13.5867 16.1402 13.1034 16.5002 12.4901C16.8602 11.8767 17.0402 11.2034 17.0402 10.4701V9.63006C17.0402 9.51006 16.9735 9.39673 16.8402 9.29006C16.7068 9.18339 16.5535 9.13006 16.3802 9.13006Z" fill="#030712"/>
</svg>
