<svg width="33" height="35" viewBox="0 0 33 35" fill="none" xmlns="http://www.w3.org/2000/svg">
<path d="M31.32 22.994C30.9733 22.994 30.6667 23.117 30.4 23.363C30.1333 23.609 30 23.937 30 24.347V29.472L22.16 21.436C21.8933 21.19 21.5867 21.067 21.24 21.067C20.8933 21.067 20.5867 21.19 20.32 21.436C20.0533 21.682 19.9267 21.9963 19.94 22.379C19.9533 22.7616 20.08 23.076 20.32 23.322L28.16 31.358H23.16C22.8133 31.358 22.5067 31.4878 22.24 31.7475C21.9733 32.0071 21.84 32.3351 21.84 32.7315C21.84 33.1278 21.96 33.4558 22.2 33.7155C22.44 33.9751 22.76 34.105 23.16 34.105H31.32C31.5333 34.105 31.7067 34.0503 31.84 33.941C31.92 33.941 31.9933 33.9 32.06 33.818C32.1267 33.736 32.16 33.654 32.16 33.572C32.16 33.49 32.1933 33.4148 32.26 33.3465C32.3267 33.2781 32.4 33.244 32.48 33.244C32.48 33.1893 32.5067 33.1073 32.56 32.998C32.6133 32.8886 32.64 32.793 32.64 32.711V24.511C32.64 24.019 32.5133 23.6431 32.26 23.3835C32.0067 23.1238 31.6933 22.994 31.32 22.994ZM10.48 21.272L2.64 29.308V24.183C2.64 23.8276 2.52 23.5133 2.28 23.24C2.04 22.9666 1.71333 22.83 1.3 22.83C0.886667 22.83 0.566667 22.9461 0.34 23.1785C0.113333 23.4108 0 23.7456 0 24.183V32.383C0 32.6016 0.0533333 32.7793 0.16 32.916C0.16 32.998 0.193333 33.0731 0.26 33.1415C0.326667 33.2098 0.4 33.244 0.48 33.244C0.56 33.244 0.64 33.2781 0.72 33.3465C0.8 33.4148 0.84 33.49 0.84 33.572C0.893333 33.572 0.973333 33.5993 1.08 33.654C1.18667 33.7086 1.26667 33.736 1.32 33.736H9.32C9.66667 33.736 9.97333 33.613 10.24 33.367C10.5067 33.121 10.64 32.7861 10.64 32.3625C10.64 31.9388 10.5267 31.6108 10.3 31.3785C10.0733 31.1461 9.74667 31.03 9.32 31.03H4.32L12.16 22.994C12.4 22.7206 12.52 22.3995 12.52 22.0305C12.52 21.6615 12.4 21.354 12.16 21.108C11.92 20.862 11.6467 20.7663 11.34 20.821C11.0333 20.8756 10.7467 21.026 10.48 21.272ZM32.48 1.09998C32.48 1.01798 32.4467 0.942813 32.38 0.87448C32.3133 0.806146 32.24 0.77198 32.16 0.77198C32.08 0.77198 32.0067 0.737813 31.94 0.66948C31.8733 0.601146 31.84 0.52598 31.84 0.44398C31.76 0.44398 31.6667 0.416646 31.56 0.36198C31.4533 0.307313 31.3733 0.27998 31.32 0.27998H23.32C22.9733 0.27998 22.6667 0.40298 22.4 0.64898C22.1333 0.89498 22 1.22981 22 1.65348C22 2.07715 22.1133 2.40515 22.34 2.63748C22.5667 2.86981 22.8933 2.98598 23.32 2.98598H28.32L20.48 11.022C20.24 11.2953 20.12 11.6096 20.12 11.965C20.12 12.3203 20.24 12.6346 20.48 12.908C20.56 12.99 20.68 13.0651 20.84 13.1335C21 13.2018 21.16 13.236 21.32 13.236C21.48 13.236 21.64 13.2018 21.8 13.1335C21.96 13.0651 22.08 12.99 22.16 12.908L30 4.87198V9.99698C30 10.3523 30.12 10.6666 30.36 10.94C30.6 11.2133 30.9267 11.35 31.34 11.35C31.7533 11.35 32.0733 11.2338 32.3 11.0015C32.5267 10.7691 32.64 10.4343 32.64 9.99698V1.63298C32.64 1.57831 32.6133 1.49631 32.56 1.38698C32.5067 1.27765 32.48 1.18198 32.48 1.09998ZM4.32 2.98598H9.32C9.66667 2.98598 9.97333 2.86298 10.24 2.61698C10.5067 2.37098 10.64 2.04298 10.64 1.63298C10.64 1.22298 10.5133 0.922313 10.26 0.73098C10.0067 0.539646 9.69333 0.44398 9.32 0.44398H1.32C1.10667 0.44398 0.946667 0.498646 0.84 0.60798C0.733333 0.60798 0.646667 0.642146 0.58 0.71048C0.513333 0.778813 0.48 0.847146 0.48 0.91548C0.48 0.983813 0.426667 1.01798 0.32 1.01798C0.213333 1.01798 0.16 1.05215 0.16 1.12048C0.16 1.18881 0.133333 1.27765 0.08 1.38698C0.0266667 1.49631 0 1.57831 0 1.63298V9.83298C0 10.1883 0.12 10.5026 0.36 10.776C0.6 11.0493 0.926667 11.186 1.34 11.186C1.75333 11.186 2.07333 11.0698 2.3 10.8375C2.52667 10.6051 2.64 10.2703 2.64 9.83298V4.70798L10.48 12.744C10.56 12.908 10.68 13.031 10.84 13.113C11 13.195 11.16 13.236 11.32 13.236C11.48 13.236 11.64 13.2018 11.8 13.1335C11.96 13.0651 12.08 12.99 12.16 12.908C12.4 12.6346 12.52 12.3203 12.52 11.965C12.52 11.6096 12.4 11.2953 12.16 11.022L4.32 2.98598Z" fill="black" fill-opacity="0.7"/>
</svg>
