<svg width="36" height="36" viewBox="0 0 36 36" fill="none" xmlns="http://www.w3.org/2000/svg">
<rect width="36" height="36" rx="6" fill="white"/>
<g clip-path="url(#clip0_7592_68)">
<path d="M20.9727 18.93L21.3927 16.215H18.7827V14.46C18.7827 14.04 18.8927 13.705 19.1127 13.455C19.3827 13.145 19.7827 12.99 20.3127 12.99H21.4977V10.68L20.8377 10.59C20.3077 10.53 19.8277 10.5 19.3977 10.5C18.6777 10.5 18.0527 10.6425 17.5227 10.9275C16.9927 11.2125 16.5827 11.63 16.2927 12.18C16.0027 12.73 15.8577 13.39 15.8577 14.16V16.215H13.4727V18.93H15.8577V25.5H18.7827V18.93H20.9727Z" fill="#1877F2"/>
</g>
<defs>
<clipPath id="clip0_7592_68">
<rect width="15" height="15" fill="white" transform="matrix(1 0 0 -1 10.5 25.5)"/>
</clipPath>
</defs>
</svg>
