<svg width="37" height="37" viewBox="0 0 37 37" fill="none" xmlns="http://www.w3.org/2000/svg">
<rect x="0.5" y="0.640137" width="36" height="36" rx="6" fill="white"/>
<path d="M18.6682 15.0399C18.0175 15.0399 17.4175 15.2026 16.8682 15.5279C16.3188 15.8533 15.8815 16.2906 15.5562 16.8399C15.2308 17.3893 15.0682 17.9893 15.0682 18.6399C15.0682 19.2906 15.2308 19.8906 15.5562 20.4399C15.8815 20.9893 16.3188 21.4239 16.8682 21.7439C17.4175 22.0639 18.0175 22.2239 18.6682 22.2239C19.3188 22.2239 19.9188 22.0639 20.4682 21.7439C21.0175 21.4239 21.4522 20.9893 21.7722 20.4399C22.0922 19.8906 22.2522 19.2906 22.2522 18.6399C22.2522 17.9893 22.0922 17.3893 21.7722 16.8399C21.4522 16.2906 21.0175 15.8533 20.4682 15.5279C19.9188 15.2026 19.3188 15.0399 18.6682 15.0399ZM18.6682 20.9759C18.2415 20.9759 17.8495 20.8719 17.4922 20.6639C17.1348 20.4559 16.8522 20.1706 16.6442 19.8079C16.4362 19.4453 16.3322 19.0559 16.3322 18.6399C16.3322 18.2239 16.4362 17.8346 16.6442 17.4719C16.8522 17.1093 17.1348 16.8239 17.4922 16.6159C17.8495 16.4079 18.2415 16.3039 18.6682 16.3039C19.0948 16.3039 19.4868 16.4079 19.8442 16.6159C20.2015 16.8239 20.4842 17.1066 20.6922 17.4639C20.9002 17.8213 21.0042 18.2133 21.0042 18.6399C21.0042 19.0666 20.9002 19.4586 20.6922 19.8159C20.4842 20.1733 20.1988 20.4559 19.8362 20.6639C19.4735 20.8719 19.0842 20.9759 18.6682 20.9759ZM23.2442 14.8959C23.2442 15.1306 23.1615 15.3306 22.9962 15.4959C22.8308 15.6613 22.6308 15.7439 22.3962 15.7439C22.1615 15.7439 21.9642 15.6613 21.8042 15.4959C21.6442 15.3306 21.5642 15.1306 21.5642 14.8959C21.5642 14.6613 21.6442 14.4639 21.8042 14.3039C21.9642 14.1439 22.1615 14.0639 22.3962 14.0639C22.6308 14.0639 22.8308 14.1439 22.9962 14.3039C23.1615 14.4639 23.2442 14.6613 23.2442 14.8959ZM25.6122 15.7439C25.5908 15.1359 25.5002 14.6079 25.3402 14.1599C25.1588 13.6479 24.8735 13.1999 24.4842 12.8159C24.0948 12.4319 23.6442 12.1493 23.1322 11.9679C22.6842 11.8079 22.1562 11.7119 21.5482 11.6799C20.9722 11.6479 20.0095 11.6319 18.6602 11.6319C17.3108 11.6319 16.3482 11.6479 15.7722 11.6799C15.1535 11.7119 14.6255 11.8079 14.1882 11.9679C13.6762 12.1493 13.2282 12.4319 12.8442 12.8159C12.4602 13.1999 12.1775 13.6479 11.9962 14.1599C11.8255 14.6079 11.7295 15.1359 11.7082 15.7439C11.6762 16.3199 11.6602 17.2826 11.6602 18.6319C11.6602 19.9813 11.6762 20.9439 11.7082 21.5199C11.7295 22.1279 11.8202 22.6559 11.9802 23.1039C12.1615 23.6159 12.4495 24.0693 12.8442 24.4639C13.2388 24.8586 13.6922 25.1413 14.2042 25.3119C14.6308 25.4719 15.1535 25.5626 15.7722 25.5839C16.3482 25.6266 17.3108 25.6479 18.6602 25.6479C20.0095 25.6479 20.9722 25.6266 21.5482 25.5839C22.1562 25.5626 22.6842 25.4719 23.1322 25.3119C23.6442 25.1306 24.0948 24.8453 24.4842 24.4559C24.8735 24.0666 25.1588 23.6159 25.3402 23.1039C25.5002 22.6559 25.5908 22.1279 25.6122 21.5199C25.6442 20.9439 25.6602 19.9839 25.6602 18.6399C25.6602 17.2959 25.6442 16.3306 25.6122 15.7439ZM24.1242 22.7679C24.0068 23.0666 23.8335 23.3333 23.6042 23.5679C23.3748 23.8026 23.1055 23.9786 22.7962 24.0959C22.4442 24.2346 21.8735 24.3253 21.0842 24.3679C20.6362 24.3893 19.9908 24.3946 19.1482 24.3839H18.1882C17.3455 24.3946 16.7002 24.3893 16.2522 24.3679C15.4522 24.3253 14.8815 24.2346 14.5402 24.0959C14.2308 23.9786 13.9615 23.8053 13.7322 23.5759C13.5028 23.3466 13.3295 23.0773 13.2122 22.7679C13.0735 22.4159 12.9828 21.8453 12.9402 21.0559C12.9188 20.6079 12.9135 19.9626 12.9242 19.1199V18.1599C12.9135 17.3173 12.9188 16.6719 12.9402 16.2239C12.9828 15.4239 13.0735 14.8533 13.2122 14.5119C13.3295 14.2026 13.5028 13.9333 13.7322 13.7039C13.9615 13.4746 14.2308 13.3013 14.5402 13.1839C14.8815 13.0453 15.4468 12.9546 16.2362 12.9119C16.6842 12.8906 17.3348 12.8853 18.1882 12.8959H19.1482C19.9908 12.8853 20.6362 12.8906 21.0842 12.9119C21.8735 12.9546 22.4442 13.0453 22.7962 13.1839C23.1055 13.3013 23.3748 13.4746 23.6042 13.7039C23.8335 13.9333 24.0068 14.2026 24.1242 14.5119C24.2628 14.8533 24.3535 15.4186 24.3962 16.2079C24.4175 16.6559 24.4228 17.3066 24.4122 18.1599V19.1199C24.4228 19.9626 24.4175 20.6079 24.3962 21.0559C24.3535 21.8453 24.2628 22.4159 24.1242 22.7679Z" fill="#FD1D1D"/>
</svg>
