<svg width="37" height="37" viewBox="0 0 37 37" fill="none" xmlns="http://www.w3.org/2000/svg">
<rect x="0.5" y="0.640137" width="36" height="36" rx="6" fill="white"/>
<g clip-path="url(#clip0_7577_62)">
<path d="M15.0377 24.2651H12.3227V15.5051H15.0377V24.2651ZM13.6727 14.3051C13.3927 14.3051 13.1302 14.2326 12.8852 14.0876C12.6402 13.9426 12.4477 13.7501 12.3077 13.5101C12.1677 13.2701 12.0977 13.0051 12.0977 12.7151C12.0977 12.4251 12.1677 12.1601 12.3077 11.9201C12.4477 11.6801 12.6377 11.4901 12.8777 11.3501C13.1177 11.2101 13.3827 11.1401 13.6727 11.1401C13.9627 11.1401 14.2277 11.2101 14.4677 11.3501C14.7077 11.4901 14.8977 11.6801 15.0377 11.9201C15.1777 12.1601 15.2477 12.4251 15.2477 12.7151C15.2477 13.0051 15.1777 13.2701 15.0377 13.5101C14.8977 13.7501 14.7052 13.9426 14.4602 14.0876C14.2152 14.2326 13.9527 14.3051 13.6727 14.3051ZM25.2227 24.2651H22.5077V20.0051C22.5077 19.5451 22.4877 19.1951 22.4477 18.9551C22.3877 18.5651 22.2627 18.2651 22.0727 18.0551C21.8527 17.8051 21.5277 17.6801 21.0977 17.6801C20.4477 17.6801 19.9977 17.9101 19.7477 18.3701C19.5577 18.7201 19.4627 19.2401 19.4627 19.9301V24.2651H16.7477V15.5051H19.3577V16.6901H19.3877C19.5877 16.3101 19.8977 15.9901 20.3177 15.7301C20.7977 15.4301 21.3477 15.2801 21.9677 15.2801C22.8377 15.2801 23.5277 15.4651 24.0377 15.8351C24.4877 16.1651 24.8027 16.6601 24.9827 17.3201C25.1427 17.8701 25.2227 18.5801 25.2227 19.4501V24.2651Z" fill="#0077B5"/>
</g>
<defs>
<clipPath id="clip0_7577_62">
<rect width="15" height="15" fill="white" transform="matrix(1 0 0 -1 11 26.1401)"/>
</clipPath>
</defs>
</svg>
