<svg width="26" height="21" viewBox="0 0 26 21" fill="none" xmlns="http://www.w3.org/2000/svg">
<path d="M22.0842 0.135683H3.43616C2.85749 0.135683 2.31616 0.275683 1.81216 0.555683C1.30816 0.835683 0.906823 1.21835 0.608156 1.70368C0.30949 2.18902 0.160156 2.72102 0.160156 3.29968V17.2997C0.160156 17.8784 0.304823 18.4197 0.594156 18.9237C0.88349 19.4277 1.27549 19.829 1.77016 20.1277C2.26482 20.4264 2.82016 20.5757 3.43616 20.5757H22.0842C22.6628 20.5757 23.2042 20.431 23.7082 20.1417C24.2122 19.8524 24.6135 19.4604 24.9122 18.9657C25.2108 18.471 25.3602 17.9157 25.3602 17.2997V3.29968C25.3602 2.72102 25.2108 2.18902 24.9122 1.70368C24.6135 1.21835 24.2122 0.835683 23.7082 0.555683C23.2042 0.275683 22.6628 0.135683 22.0842 0.135683ZM3.43616 1.89968H22.0842C22.4948 1.89968 22.8308 2.03968 23.0922 2.31968C23.3535 2.59968 23.4842 2.92635 23.4842 3.29968V3.99968L13.4602 10.4117C13.2175 10.5237 12.9655 10.5797 12.7042 10.5797C12.4428 10.5797 12.1908 10.5237 11.9482 10.4117L2.03616 3.99968V3.29968C2.03616 2.88902 2.16682 2.55302 2.42816 2.29168C2.68949 2.03035 3.02549 1.89968 3.43616 1.89968ZM22.0842 18.8117H3.43616C3.04416 18.8117 2.71282 18.667 2.44216 18.3777C2.17149 18.0884 2.03616 17.7664 2.03616 17.4117V6.09968L11.1362 11.9237C11.5282 12.241 12.0695 12.3997 12.7602 12.3997C13.4508 12.3997 13.9922 12.241 14.3842 11.9237L23.4842 6.09968V17.2997C23.4842 17.7104 23.3535 18.065 23.0922 18.3637C22.8308 18.6624 22.4948 18.8117 22.0842 18.8117Z" fill="#111827"/>
</svg>
