<svg width="12" height="11" viewBox="0 0 12 11" fill="none" xmlns="http://www.w3.org/2000/svg">
<path d="M10.8095 4.91596H6.6655V0.707956C6.6655 0.569289 6.6175 0.446622 6.5215 0.339956C6.4255 0.233289 6.2975 0.179956 6.1375 0.179956C5.9775 0.179956 5.8495 0.233289 5.7535 0.339956C5.6575 0.446622 5.6095 0.569289 5.6095 0.707956V4.85196H1.4655C1.32683 4.85196 1.20417 4.89996 1.0975 4.99596C0.990833 5.09196 0.9375 5.22262 0.9375 5.38796C0.9375 5.55329 0.9855 5.68129 1.0815 5.77196C1.1775 5.86262 1.3055 5.90796 1.4655 5.90796H5.6095V10.052C5.6095 10.1906 5.6575 10.3133 5.7535 10.42C5.8495 10.5266 5.98017 10.58 6.1455 10.58C6.31083 10.58 6.43883 10.532 6.5295 10.436C6.62017 10.34 6.6655 10.212 6.6655 10.052V5.90796H10.8095C10.9482 5.90796 11.0708 5.85996 11.1775 5.76396C11.2842 5.66796 11.3375 5.53996 11.3375 5.37996C11.3375 5.21996 11.2868 5.10262 11.1855 5.02796C11.0842 4.95329 10.9588 4.91596 10.8095 4.91596Z" fill="white"/>
</svg>
