<svg width="12" height="11" viewBox="0 0 12 11" fill="none" xmlns="http://www.w3.org/2000/svg">
<path d="M10.8134 4.86603H6.66941V0.658029C6.66941 0.519362 6.62141 0.396695 6.52541 0.290029C6.42941 0.183362 6.30141 0.130029 6.14141 0.130029C5.98141 0.130029 5.85341 0.183362 5.75741 0.290029C5.66141 0.396695 5.61341 0.519362 5.61341 0.658029V4.80203H1.46941C1.33074 4.80203 1.20807 4.85003 1.10141 4.94603C0.99474 5.04203 0.941406 5.1727 0.941406 5.33803C0.941406 5.50336 0.989406 5.63136 1.08541 5.72203C1.18141 5.8127 1.30941 5.85803 1.46941 5.85803H5.61341V10.002C5.61341 10.1407 5.66141 10.2634 5.75741 10.37C5.85341 10.4767 5.98407 10.53 6.14941 10.53C6.31474 10.53 6.44274 10.482 6.53341 10.386C6.62407 10.29 6.66941 10.162 6.66941 10.002V5.85803H10.8134C10.9521 5.85803 11.0747 5.81003 11.1814 5.71403C11.2881 5.61803 11.3414 5.49003 11.3414 5.33003C11.3414 5.17003 11.2907 5.0527 11.1894 4.97803C11.0881 4.90336 10.9627 4.86603 10.8134 4.86603Z" fill="#634C9F"/>
</svg>
