<svg width="64" height="31" viewBox="0 0 64 31" fill="none" xmlns="http://www.w3.org/2000/svg">
<rect x="0.5" y="0.22998" width="30" height="30" rx="6" fill="#D1D5DB"/>
<path d="M13.2542 7.72802H9.51016C9.12616 7.72802 8.80516 7.84802 8.54716 8.08802C8.28916 8.32802 8.16016 8.63402 8.16016 9.00602V12.75C8.16016 13.122 8.29216 13.44 8.55616 13.704C8.82016 13.968 9.13816 14.1 9.51016 14.1H13.2542C13.6382 14.1 13.9592 13.968 14.2172 13.704C14.4752 13.44 14.6042 13.122 14.6042 12.75V9.00602C14.6042 8.63402 14.4752 8.32802 14.2172 8.08802C13.9592 7.84802 13.6382 7.72802 13.2542 7.72802ZM13.3982 12.75C13.3982 12.786 13.3832 12.819 13.3532 12.849C13.3232 12.879 13.2902 12.894 13.2542 12.894H9.51016C9.47416 12.93 9.43816 12.927 9.40216 12.885C9.36616 12.843 9.34816 12.798 9.34816 12.75V9.00602C9.34816 8.95802 9.36616 8.91902 9.40216 8.88902C9.43816 8.85902 9.47416 8.84402 9.51016 8.84402H13.2542C13.2902 8.84402 13.3232 8.85902 13.3532 8.88902C13.3832 8.91902 13.3982 8.95802 13.3982 9.00602V12.75ZM21.4982 7.72802H17.7542C17.3822 7.72802 17.0642 7.85702 16.8002 8.11502C16.5362 8.37302 16.4042 8.69402 16.4042 9.07802V12.822C16.4042 13.194 16.5362 13.512 16.8002 13.776C17.0642 14.04 17.3822 14.172 17.7542 14.172H21.4982C21.8822 14.172 22.2032 14.04 22.4612 13.776C22.7192 13.512 22.8482 13.194 22.8482 12.822V9.00602C22.8482 8.63402 22.7192 8.32802 22.4612 8.08802C22.2032 7.84802 21.8822 7.72802 21.4982 7.72802ZM21.6602 12.75C21.6602 12.786 21.6452 12.819 21.6152 12.849C21.5852 12.879 21.5462 12.894 21.4982 12.894H17.7542C17.7182 12.894 17.6852 12.879 17.6552 12.849C17.6252 12.819 17.6102 12.786 17.6102 12.75V9.00602C17.6102 8.95802 17.6252 8.91902 17.6552 8.88902C17.6852 8.85902 17.7182 8.84402 17.7542 8.84402H21.4982C21.5462 8.84402 21.5852 8.85902 21.6152 8.88902C21.6452 8.91902 21.6602 8.95802 21.6602 9.00602V12.75ZM21.4982 15.972H17.7542C17.3822 15.972 17.0642 16.101 16.8002 16.359C16.5362 16.617 16.4042 16.938 16.4042 17.322V21.066C16.4042 21.45 16.5362 21.774 16.8002 22.038C17.0642 22.302 17.3822 22.434 17.7542 22.434H21.4982C21.8702 22.434 22.1882 22.302 22.4522 22.038C22.7162 21.774 22.8482 21.45 22.8482 21.066V17.322C22.8482 16.914 22.7192 16.587 22.4612 16.341C22.2032 16.095 21.8822 15.972 21.4982 15.972ZM21.6602 20.994C21.6602 21.03 21.6452 21.066 21.6152 21.102C21.5852 21.138 21.5462 21.156 21.4982 21.156H17.7542C17.7182 21.156 17.6852 21.138 17.6552 21.102C17.6252 21.066 17.6102 21.03 17.6102 20.994V17.25C17.6102 17.214 17.6252 17.181 17.6552 17.151C17.6852 17.121 17.7182 17.106 17.7542 17.106H21.4982C21.5462 17.106 21.5852 17.121 21.6152 17.151C21.6452 17.181 21.6602 17.214 21.6602 17.25V20.994ZM13.2542 15.972H9.51016C9.13816 15.972 8.82016 16.101 8.55616 16.359C8.29216 16.617 8.16016 16.938 8.16016 17.322V21.066C8.16016 21.45 8.29216 21.774 8.55616 22.038C8.82016 22.302 9.13816 22.434 9.51016 22.434H13.2542C13.6262 22.434 13.9442 22.302 14.2082 22.038C14.4722 21.774 14.6042 21.45 14.6042 21.066V17.322C14.6042 16.914 14.4752 16.587 14.2172 16.341C13.9592 16.095 13.6382 15.972 13.2542 15.972ZM13.3982 20.994C13.3982 21.03 13.3832 21.066 13.3532 21.102C13.3232 21.138 13.2902 21.156 13.2542 21.156H9.51016C9.47416 21.156 9.43816 21.138 9.40216 21.102C9.36616 21.066 9.34816 21.03 9.34816 20.994V17.25C9.34816 17.214 9.36616 17.181 9.40216 17.151C9.43816 17.121 9.47416 17.106 9.51016 17.106H13.2542C13.2902 17.106 13.3232 17.121 13.3532 17.151C13.3832 17.181 13.3982 17.214 13.3982 17.25V20.994Z" fill="#111827"/>
<g clip-path="url(#clip0_6391_1458)">
<path d="M44.7542 7.958H41.0102C40.6262 7.958 40.3052 8.078 40.0472 8.318C39.7892 8.558 39.6602 8.864 39.6602 9.236V12.98C39.6602 13.352 39.7922 13.67 40.0562 13.934C40.3202 14.198 40.6382 14.33 41.0102 14.33H44.7542C45.1382 14.33 45.4592 14.198 45.7172 13.934C45.9752 13.67 46.1042 13.352 46.1042 12.98V9.236C46.1042 8.864 45.9752 8.558 45.7172 8.318C45.4592 8.078 45.1382 7.958 44.7542 7.958ZM44.8982 12.98C44.8982 13.016 44.8832 13.049 44.8532 13.079C44.8232 13.109 44.7902 13.124 44.7542 13.124H41.0102C40.9742 13.16 40.9382 13.157 40.9022 13.115C40.8662 13.073 40.8482 13.028 40.8482 12.98V9.236C40.8482 9.188 40.8662 9.149 40.9022 9.119C40.9382 9.089 40.9742 9.074 41.0102 9.074H44.7542C44.7902 9.074 44.8232 9.089 44.8532 9.119C44.8832 9.149 44.8982 9.188 44.8982 9.236V12.98ZM44.7542 16.202H41.0102C40.6382 16.202 40.3202 16.331 40.0562 16.589C39.7922 16.847 39.6602 17.168 39.6602 17.552V21.296C39.6602 21.68 39.7922 22.004 40.0562 22.268C40.3202 22.532 40.6382 22.664 41.0102 22.664H44.7542C45.1262 22.664 45.4442 22.532 45.7082 22.268C45.9722 22.004 46.1042 21.68 46.1042 21.296V17.552C46.1042 17.144 45.9752 16.817 45.7172 16.571C45.4592 16.325 45.1382 16.202 44.7542 16.202ZM44.8982 21.224C44.8982 21.26 44.8832 21.296 44.8532 21.332C44.8232 21.368 44.7902 21.386 44.7542 21.386H41.0102C40.9742 21.386 40.9382 21.368 40.9022 21.332C40.8662 21.296 40.8482 21.26 40.8482 21.224V17.48C40.8482 17.444 40.8662 17.411 40.9022 17.381C40.9382 17.351 40.9742 17.336 41.0102 17.336H44.7542C44.7902 17.336 44.8232 17.351 44.8532 17.381C44.8832 17.411 44.8982 17.444 44.8982 17.48V21.224ZM48.4982 9.83H53.7542C53.9102 9.83 54.0482 9.773 54.1682 9.659C54.2882 9.545 54.3482 9.404 54.3482 9.236C54.3482 9.068 54.2912 8.936 54.1772 8.84C54.0632 8.744 53.9222 8.696 53.7542 8.696H48.4982C48.3422 8.696 48.2042 8.753 48.0842 8.867C47.9642 8.981 47.9042 9.128 47.9042 9.308C47.9042 9.488 47.9612 9.62 48.0752 9.704C48.1892 9.788 48.3302 9.83 48.4982 9.83ZM53.7542 12.458H48.4982C48.3422 12.458 48.2042 12.512 48.0842 12.62C47.9642 12.728 47.9042 12.875 47.9042 13.061C47.9042 13.247 47.9582 13.391 48.0662 13.493C48.1742 13.595 48.3182 13.646 48.4982 13.646H53.7542C53.9102 13.646 54.0482 13.592 54.1682 13.484C54.2882 13.376 54.3482 13.232 54.3482 13.052C54.3482 12.872 54.2882 12.728 54.1682 12.62C54.0482 12.512 53.9102 12.458 53.7542 12.458ZM53.7542 16.958H48.4982C48.3422 16.958 48.2042 17.012 48.0842 17.12C47.9642 17.228 47.9042 17.375 47.9042 17.561C47.9042 17.747 47.9582 17.891 48.0662 17.993C48.1742 18.095 48.3182 18.146 48.4982 18.146H53.7542C53.9102 18.146 54.0482 18.092 54.1682 17.984C54.2882 17.876 54.3482 17.732 54.3482 17.552C54.3482 17.372 54.2882 17.228 54.1682 17.12C54.0482 17.012 53.9102 16.958 53.7542 16.958ZM53.7542 20.702H48.4982C48.3422 20.702 48.2042 20.759 48.0842 20.873C47.9642 20.987 47.9042 21.131 47.9042 21.305C47.9042 21.479 47.9582 21.623 48.0662 21.737C48.1742 21.851 48.3182 21.908 48.4982 21.908H53.7542C53.9102 21.908 54.0482 21.851 54.1682 21.737C54.2882 21.623 54.3482 21.476 54.3482 21.296C54.3482 21.116 54.2882 20.972 54.1682 20.864C54.0482 20.756 53.9102 20.702 53.7542 20.702Z" fill="#6B7280"/>
</g>
<defs>
<clipPath id="clip0_6391_1458">
<rect width="18" height="18" fill="white" transform="matrix(1 0 0 -1 39.5 24.23)"/>
</clipPath>
</defs>
</svg>
