<svg width="67" height="12" viewBox="0 0 67 12" fill="none" xmlns="http://www.w3.org/2000/svg">
<g clip-path="url(#clip0_7606_198)">
<g clip-path="url(#clip1_7606_198)">
<path d="M6.29346 1.265C6.2348 1.14767 6.15046 1.05417 6.04046 0.984504C5.93046 0.914837 5.80946 0.880004 5.67746 0.880004C5.54546 0.880004 5.42263 0.914837 5.30896 0.984504C5.19529 1.05417 5.10913 1.14767 5.05046 1.265L3.67546 4.114L0.584462 4.565C0.459795 4.57967 0.346128 4.62917 0.243462 4.7135C0.140795 4.79784 0.0711285 4.90234 0.0344618 5.027C-0.00220486 5.15167 -0.00587153 5.27817 0.0234618 5.4065C0.0527951 5.53484 0.115128 5.643 0.210462 5.731L2.44346 7.953L1.91546 11.077C1.89346 11.209 1.90813 11.3337 1.95946 11.451C2.0108 11.5683 2.0878 11.6673 2.19046 11.748C2.29313 11.8287 2.41046 11.8727 2.54246 11.88C2.67446 11.8873 2.79913 11.8617 2.91646 11.803L5.67746 10.329L8.43846 11.803C8.55579 11.8617 8.67863 11.8873 8.80696 11.88C8.9353 11.8727 9.05446 11.8305 9.16446 11.7535C9.27446 11.6765 9.3533 11.5775 9.40096 11.4565C9.44863 11.3355 9.46146 11.209 9.43946 11.077L8.90046 7.953L11.1445 5.731C11.2398 5.643 11.3021 5.53484 11.3315 5.4065C11.3608 5.27817 11.3535 5.15167 11.3095 5.027C11.2655 4.90234 11.1958 4.79784 11.1005 4.7135C11.0051 4.62917 10.8915 4.57967 10.7595 4.565L7.67946 4.114L6.29346 1.265Z" fill="#D1D5DB"/>
<path d="M19.6685 1.265C19.6098 1.14767 19.5255 1.05417 19.4155 0.984504C19.3055 0.914837 19.1845 0.880004 19.0525 0.880004C18.9205 0.880004 18.7976 0.914837 18.684 0.984504C18.5703 1.05417 18.4841 1.14767 18.4255 1.265L17.0505 4.114L13.9595 4.565C13.8348 4.57967 13.7211 4.62917 13.6185 4.7135C13.5158 4.79784 13.4461 4.90234 13.4095 5.027C13.3728 5.15167 13.3691 5.27817 13.3985 5.4065C13.4278 5.53484 13.4901 5.643 13.5855 5.731L15.8185 7.953L15.2905 11.077C15.2685 11.209 15.2831 11.3337 15.3345 11.451C15.3858 11.5683 15.4628 11.6673 15.5655 11.748C15.6681 11.8287 15.7855 11.8727 15.9175 11.88C16.0495 11.8873 16.1741 11.8617 16.2915 11.803L19.0525 10.329L21.8135 11.803C21.9308 11.8617 22.0536 11.8873 22.182 11.88C22.3103 11.8727 22.4295 11.8305 22.5395 11.7535C22.6495 11.6765 22.7283 11.5775 22.776 11.4565C22.8236 11.3355 22.8365 11.209 22.8145 11.077L22.2755 7.953L24.5195 5.731C24.6148 5.643 24.6771 5.53484 24.7065 5.4065C24.7358 5.27817 24.7285 5.15167 24.6845 5.027C24.6405 4.90234 24.5708 4.79784 24.4755 4.7135C24.3801 4.62917 24.2665 4.57967 24.1345 4.565L21.0545 4.114L19.6685 1.265Z" fill="#D1D5DB"/>
<path d="M33.0435 1.265C32.9848 1.14767 32.9005 1.05417 32.7905 0.984504C32.6805 0.914837 32.5595 0.880004 32.4275 0.880004C32.2955 0.880004 32.1726 0.914837 32.059 0.984504C31.9453 1.05417 31.8591 1.14767 31.8005 1.265L30.4255 4.114L27.3345 4.565C27.2098 4.57967 27.0961 4.62917 26.9935 4.7135C26.8908 4.79784 26.8211 4.90234 26.7845 5.027C26.7478 5.15167 26.7441 5.27817 26.7735 5.4065C26.8028 5.53484 26.8651 5.643 26.9605 5.731L29.1935 7.953L28.6655 11.077C28.6435 11.209 28.6581 11.3337 28.7095 11.451C28.7608 11.5683 28.8378 11.6673 28.9405 11.748C29.0431 11.8287 29.1605 11.8727 29.2925 11.88C29.4245 11.8873 29.5491 11.8617 29.6665 11.803L32.4275 10.329L35.1885 11.803C35.3058 11.8617 35.4286 11.8873 35.557 11.88C35.6853 11.8727 35.8045 11.8305 35.9145 11.7535C36.0245 11.6765 36.1033 11.5775 36.151 11.4565C36.1986 11.3355 36.2115 11.209 36.1895 11.077L35.6505 7.953L37.8945 5.731C37.9898 5.643 38.0521 5.53484 38.0815 5.4065C38.1108 5.27817 38.1035 5.15167 38.0595 5.027C38.0155 4.90234 37.9458 4.79784 37.8505 4.7135C37.7551 4.62917 37.6415 4.57967 37.5095 4.565L34.4295 4.114L33.0435 1.265Z" fill="#D1D5DB"/>
<path d="M46.4185 1.265C46.3598 1.14767 46.2755 1.05417 46.1655 0.984504C46.0555 0.914837 45.9345 0.880004 45.8025 0.880004C45.6705 0.880004 45.5476 0.914837 45.434 0.984504C45.3203 1.05417 45.2341 1.14767 45.1755 1.265L43.8005 4.114L40.7095 4.565C40.5848 4.57967 40.4711 4.62917 40.3685 4.7135C40.2658 4.79784 40.1961 4.90234 40.1595 5.027C40.1228 5.15167 40.1191 5.27817 40.1485 5.4065C40.1778 5.53484 40.2401 5.643 40.3355 5.731L42.5685 7.953L42.0405 11.077C42.0185 11.209 42.0331 11.3337 42.0845 11.451C42.1358 11.5683 42.2128 11.6673 42.3155 11.748C42.4181 11.8287 42.5355 11.8727 42.6675 11.88C42.7995 11.8873 42.9241 11.8617 43.0415 11.803L45.8025 10.329L48.5635 11.803C48.6808 11.8617 48.8036 11.8873 48.932 11.88C49.0603 11.8727 49.1795 11.8305 49.2895 11.7535C49.3995 11.6765 49.4783 11.5775 49.526 11.4565C49.5736 11.3355 49.5865 11.209 49.5645 11.077L49.0255 7.953L51.2695 5.731C51.3648 5.643 51.4271 5.53484 51.4565 5.4065C51.4858 5.27817 51.4785 5.15167 51.4345 5.027C51.3905 4.90234 51.3208 4.79784 51.2255 4.7135C51.1301 4.62917 51.0165 4.57967 50.8845 4.565L47.8045 4.114L46.4185 1.265Z" fill="#D1D5DB"/>
<path d="M59.7935 1.265C59.7348 1.14767 59.6505 1.05417 59.5405 0.984504C59.4305 0.914837 59.3095 0.880004 59.1775 0.880004C59.0455 0.880004 58.9226 0.914837 58.809 0.984504C58.6953 1.05417 58.6091 1.14767 58.5505 1.265L57.1755 4.114L54.0845 4.565C53.9598 4.57967 53.8461 4.62917 53.7435 4.7135C53.6408 4.79784 53.5711 4.90234 53.5345 5.027C53.4978 5.15167 53.4941 5.27817 53.5235 5.4065C53.5528 5.53484 53.6151 5.643 53.7105 5.731L55.9435 7.953L55.4155 11.077C55.3935 11.209 55.4081 11.3337 55.4595 11.451C55.5108 11.5683 55.5878 11.6673 55.6905 11.748C55.7931 11.8287 55.9105 11.8727 56.0425 11.88C56.1745 11.8873 56.2991 11.8617 56.4165 11.803L59.1775 10.329L61.9385 11.803C62.0558 11.8617 62.1786 11.8873 62.307 11.88C62.4353 11.8727 62.5545 11.8305 62.6645 11.7535C62.7745 11.6765 62.8533 11.5775 62.901 11.4565C62.9486 11.3355 62.9615 11.209 62.9395 11.077L62.4005 7.953L64.6445 5.731C64.7398 5.643 64.8021 5.53484 64.8315 5.4065C64.8608 5.27817 64.8535 5.15167 64.8095 5.027C64.7655 4.90234 64.6958 4.79784 64.6005 4.7135C64.5051 4.62917 64.3915 4.57967 64.2595 4.565L61.1795 4.114L59.7935 1.265Z" fill="#D1D5DB"/>
</g>
<g clip-path="url(#clip2_7606_198)">
<g clip-path="url(#clip3_7606_198)">
<path d="M6.29346 1.265C6.2348 1.14767 6.15046 1.05417 6.04046 0.984504C5.93046 0.914837 5.80946 0.880004 5.67746 0.880004C5.54546 0.880004 5.42263 0.914837 5.30896 0.984504C5.19529 1.05417 5.10913 1.14767 5.05046 1.265L3.67546 4.114L0.584462 4.565C0.459795 4.57967 0.346128 4.62917 0.243462 4.7135C0.140795 4.79784 0.0711285 4.90234 0.0344618 5.027C-0.00220486 5.15167 -0.00587153 5.27817 0.0234618 5.4065C0.0527951 5.53484 0.115128 5.643 0.210462 5.731L2.44346 7.953L1.91546 11.077C1.89346 11.209 1.90813 11.3337 1.95946 11.451C2.0108 11.5683 2.0878 11.6673 2.19046 11.748C2.29313 11.8287 2.41046 11.8727 2.54246 11.88C2.67446 11.8873 2.79913 11.8617 2.91646 11.803L5.67746 10.329L8.43846 11.803C8.55579 11.8617 8.67863 11.8873 8.80696 11.88C8.9353 11.8727 9.05446 11.8305 9.16446 11.7535C9.27446 11.6765 9.3533 11.5775 9.40096 11.4565C9.44863 11.3355 9.46146 11.209 9.43946 11.077L8.90046 7.953L11.1445 5.731C11.2398 5.643 11.3021 5.53484 11.3315 5.4065C11.3608 5.27817 11.3535 5.15167 11.3095 5.027C11.2655 4.90234 11.1958 4.79784 11.1005 4.7135C11.0051 4.62917 10.8915 4.57967 10.7595 4.565L7.67946 4.114L6.29346 1.265Z" fill="#FACC15"/>
<path d="M19.6685 1.265C19.6098 1.14767 19.5255 1.05417 19.4155 0.984504C19.3055 0.914837 19.1845 0.880004 19.0525 0.880004C18.9205 0.880004 18.7976 0.914837 18.684 0.984504C18.5703 1.05417 18.4841 1.14767 18.4255 1.265L17.0505 4.114L13.9595 4.565C13.8348 4.57967 13.7211 4.62917 13.6185 4.7135C13.5158 4.79784 13.4461 4.90234 13.4095 5.027C13.3728 5.15167 13.3691 5.27817 13.3985 5.4065C13.4278 5.53484 13.4901 5.643 13.5855 5.731L15.8185 7.953L15.2905 11.077C15.2685 11.209 15.2831 11.3337 15.3345 11.451C15.3858 11.5683 15.4628 11.6673 15.5655 11.748C15.6681 11.8287 15.7855 11.8727 15.9175 11.88C16.0495 11.8873 16.1741 11.8617 16.2915 11.803L19.0525 10.329L21.8135 11.803C21.9308 11.8617 22.0536 11.8873 22.182 11.88C22.3103 11.8727 22.4295 11.8305 22.5395 11.7535C22.6495 11.6765 22.7283 11.5775 22.776 11.4565C22.8236 11.3355 22.8365 11.209 22.8145 11.077L22.2755 7.953L24.5195 5.731C24.6148 5.643 24.6771 5.53484 24.7065 5.4065C24.7358 5.27817 24.7285 5.15167 24.6845 5.027C24.6405 4.90234 24.5708 4.79784 24.4755 4.7135C24.3801 4.62917 24.2665 4.57967 24.1345 4.565L21.0545 4.114L19.6685 1.265Z" fill="#FACC15"/>
<path d="M33.0435 1.265C32.9848 1.14767 32.9005 1.05417 32.7905 0.984504C32.6805 0.914837 32.5595 0.880004 32.4275 0.880004C32.2955 0.880004 32.1726 0.914837 32.059 0.984504C31.9453 1.05417 31.8591 1.14767 31.8005 1.265L30.4255 4.114L27.3345 4.565C27.2098 4.57967 27.0961 4.62917 26.9935 4.7135C26.8908 4.79784 26.8211 4.90234 26.7845 5.027C26.7478 5.15167 26.7441 5.27817 26.7735 5.4065C26.8028 5.53484 26.8651 5.643 26.9605 5.731L29.1935 7.953L28.6655 11.077C28.6435 11.209 28.6581 11.3337 28.7095 11.451C28.7608 11.5683 28.8378 11.6673 28.9405 11.748C29.0431 11.8287 29.1605 11.8727 29.2925 11.88C29.4245 11.8873 29.5491 11.8617 29.6665 11.803L32.4275 10.329L35.1885 11.803C35.3058 11.8617 35.4286 11.8873 35.557 11.88C35.6853 11.8727 35.8045 11.8305 35.9145 11.7535C36.0245 11.6765 36.1033 11.5775 36.151 11.4565C36.1986 11.3355 36.2115 11.209 36.1895 11.077L35.6505 7.953L37.8945 5.731C37.9898 5.643 38.0521 5.53484 38.0815 5.4065C38.1108 5.27817 38.1035 5.15167 38.0595 5.027C38.0155 4.90234 37.9458 4.79784 37.8505 4.7135C37.7551 4.62917 37.6415 4.57967 37.5095 4.565L34.4295 4.114L33.0435 1.265Z" fill="#FACC15"/>
<path d="M46.4185 1.265C46.3598 1.14767 46.2755 1.05417 46.1655 0.984504C46.0555 0.914837 45.9345 0.880004 45.8025 0.880004C45.6705 0.880004 45.5476 0.914837 45.434 0.984504C45.3203 1.05417 45.2341 1.14767 45.1755 1.265L43.8005 4.114L40.7095 4.565C40.5848 4.57967 40.4711 4.62917 40.3685 4.7135C40.2658 4.79784 40.1961 4.90234 40.1595 5.027C40.1228 5.15167 40.1191 5.27817 40.1485 5.4065C40.1778 5.53484 40.2401 5.643 40.3355 5.731L42.5685 7.953L42.0405 11.077C42.0185 11.209 42.0331 11.3337 42.0845 11.451C42.1358 11.5683 42.2128 11.6673 42.3155 11.748C42.4181 11.8287 42.5355 11.8727 42.6675 11.88C42.7995 11.8873 42.9241 11.8617 43.0415 11.803L45.8025 10.329L48.5635 11.803C48.6808 11.8617 48.8036 11.8873 48.932 11.88C49.0603 11.8727 49.1795 11.8305 49.2895 11.7535C49.3995 11.6765 49.4783 11.5775 49.526 11.4565C49.5736 11.3355 49.5865 11.209 49.5645 11.077L49.0255 7.953L51.2695 5.731C51.3648 5.643 51.4271 5.53484 51.4565 5.4065C51.4858 5.27817 51.4785 5.15167 51.4345 5.027C51.3905 4.90234 51.3208 4.79784 51.2255 4.7135C51.1301 4.62917 51.0165 4.57967 50.8845 4.565L47.8045 4.114L46.4185 1.265Z" fill="#FACC15"/>
<path d="M59.7935 1.265C59.7348 1.14767 59.6505 1.05417 59.5405 0.984504C59.4305 0.914837 59.3095 0.880004 59.1775 0.880004C59.0455 0.880004 58.9226 0.914837 58.809 0.984504C58.6953 1.05417 58.6091 1.14767 58.5505 1.265L57.1755 4.114L54.0845 4.565C53.9598 4.57967 53.8461 4.62917 53.7435 4.7135C53.6408 4.79784 53.5711 4.90234 53.5345 5.027C53.4978 5.15167 53.4941 5.27817 53.5235 5.4065C53.5528 5.53484 53.6151 5.643 53.7105 5.731L55.9435 7.953L55.4155 11.077C55.3935 11.209 55.4081 11.3337 55.4595 11.451C55.5108 11.5683 55.5878 11.6673 55.6905 11.748C55.7931 11.8287 55.9105 11.8727 56.0425 11.88C56.1745 11.8873 56.2991 11.8617 56.4165 11.803L59.1775 10.329L61.9385 11.803C62.0558 11.8617 62.1786 11.8873 62.307 11.88C62.4353 11.8727 62.5545 11.8305 62.6645 11.7535C62.7745 11.6765 62.8533 11.5775 62.901 11.4565C62.9486 11.3355 62.9615 11.209 62.9395 11.077L62.4005 7.953L64.6445 5.731C64.7398 5.643 64.8021 5.53484 64.8315 5.4065C64.8608 5.27817 64.8535 5.15167 64.8095 5.027C64.7655 4.90234 64.6958 4.79784 64.6005 4.7135C64.5051 4.62917 64.3915 4.57967 64.2595 4.565L61.1795 4.114L59.7935 1.265Z" fill="#FACC15"/>
</g>
</g>
</g>
<defs>
<clipPath id="clip0_7606_198">
<rect width="66.88" height="11" fill="white" transform="translate(0 0.880005)"/>
</clipPath>
<clipPath id="clip1_7606_198">
<rect width="66.88" height="11" fill="white" transform="matrix(1 0 0 -1 0 11.88)"/>
</clipPath>
<clipPath id="clip2_7606_198">
<rect width="53.5" height="11" fill="white" transform="translate(0 0.880005)"/>
</clipPath>
<clipPath id="clip3_7606_198">
<rect width="66.88" height="11" fill="white" transform="matrix(1 0 0 -1 0 11.88)"/>
</clipPath>
</defs>
</svg>
