<svg width="67" height="12" viewBox="0 0 67 12" fill="none" xmlns="http://www.w3.org/2000/svg">
<g clip-path="url(#clip0_6314_7014)">
<g clip-path="url(#clip1_6314_7014)">
<path d="M6.29346 0.965016C6.2348 0.847683 6.15046 0.754183 6.04046 0.684516C5.93046 0.614849 5.80946 0.580016 5.67746 0.580016C5.54546 0.580016 5.42263 0.614849 5.30896 0.684516C5.19529 0.754183 5.10913 0.847683 5.05046 0.965016L3.67546 3.81402L0.584462 4.26502C0.459795 4.27968 0.346128 4.32918 0.243462 4.41352C0.140795 4.49785 0.0711285 4.60235 0.0344618 4.72702C-0.00220486 4.85168 -0.00587153 4.97818 0.0234618 5.10652C0.0527951 5.23485 0.115128 5.34302 0.210462 5.43102L2.44346 7.65302L1.91546 10.777C1.89346 10.909 1.90813 11.0337 1.95946 11.151C2.0108 11.2683 2.0878 11.3673 2.19046 11.448C2.29313 11.5287 2.41046 11.5727 2.54246 11.58C2.67446 11.5873 2.79913 11.5617 2.91646 11.503L5.67746 10.029L8.43846 11.503C8.55579 11.5617 8.67863 11.5873 8.80696 11.58C8.9353 11.5727 9.05446 11.5305 9.16446 11.4535C9.27446 11.3765 9.3533 11.2775 9.40096 11.1565C9.44863 11.0355 9.46146 10.909 9.43946 10.777L8.90046 7.65302L11.1445 5.43102C11.2398 5.34302 11.3021 5.23485 11.3315 5.10652C11.3608 4.97818 11.3535 4.85168 11.3095 4.72702C11.2655 4.60235 11.1958 4.49785 11.1005 4.41352C11.0051 4.32918 10.8915 4.27968 10.7595 4.26502L7.67946 3.81402L6.29346 0.965016Z" fill="#D1D5DB"/>
<path d="M19.6685 0.965016C19.6098 0.847683 19.5255 0.754183 19.4155 0.684516C19.3055 0.614849 19.1845 0.580016 19.0525 0.580016C18.9205 0.580016 18.7976 0.614849 18.684 0.684516C18.5703 0.754183 18.4841 0.847683 18.4255 0.965016L17.0505 3.81402L13.9595 4.26502C13.8348 4.27968 13.7211 4.32918 13.6185 4.41352C13.5158 4.49785 13.4461 4.60235 13.4095 4.72702C13.3728 4.85168 13.3691 4.97818 13.3985 5.10652C13.4278 5.23485 13.4901 5.34302 13.5855 5.43102L15.8185 7.65302L15.2905 10.777C15.2685 10.909 15.2831 11.0337 15.3345 11.151C15.3858 11.2683 15.4628 11.3673 15.5655 11.448C15.6681 11.5287 15.7855 11.5727 15.9175 11.58C16.0495 11.5873 16.1741 11.5617 16.2915 11.503L19.0525 10.029L21.8135 11.503C21.9308 11.5617 22.0536 11.5873 22.182 11.58C22.3103 11.5727 22.4295 11.5305 22.5395 11.4535C22.6495 11.3765 22.7283 11.2775 22.776 11.1565C22.8236 11.0355 22.8365 10.909 22.8145 10.777L22.2755 7.65302L24.5195 5.43102C24.6148 5.34302 24.6771 5.23485 24.7065 5.10652C24.7358 4.97818 24.7285 4.85168 24.6845 4.72702C24.6405 4.60235 24.5708 4.49785 24.4755 4.41352C24.3801 4.32918 24.2665 4.27968 24.1345 4.26502L21.0545 3.81402L19.6685 0.965016Z" fill="#D1D5DB"/>
<path d="M33.0435 0.965016C32.9848 0.847683 32.9005 0.754183 32.7905 0.684516C32.6805 0.614849 32.5595 0.580016 32.4275 0.580016C32.2955 0.580016 32.1726 0.614849 32.059 0.684516C31.9453 0.754183 31.8591 0.847683 31.8005 0.965016L30.4255 3.81402L27.3345 4.26502C27.2098 4.27968 27.0961 4.32918 26.9935 4.41352C26.8908 4.49785 26.8211 4.60235 26.7845 4.72702C26.7478 4.85168 26.7441 4.97818 26.7735 5.10652C26.8028 5.23485 26.8651 5.34302 26.9605 5.43102L29.1935 7.65302L28.6655 10.777C28.6435 10.909 28.6581 11.0337 28.7095 11.151C28.7608 11.2683 28.8378 11.3673 28.9405 11.448C29.0431 11.5287 29.1605 11.5727 29.2925 11.58C29.4245 11.5873 29.5491 11.5617 29.6665 11.503L32.4275 10.029L35.1885 11.503C35.3058 11.5617 35.4286 11.5873 35.557 11.58C35.6853 11.5727 35.8045 11.5305 35.9145 11.4535C36.0245 11.3765 36.1033 11.2775 36.151 11.1565C36.1986 11.0355 36.2115 10.909 36.1895 10.777L35.6505 7.65302L37.8945 5.43102C37.9898 5.34302 38.0521 5.23485 38.0815 5.10652C38.1108 4.97818 38.1035 4.85168 38.0595 4.72702C38.0155 4.60235 37.9458 4.49785 37.8505 4.41352C37.7551 4.32918 37.6415 4.27968 37.5095 4.26502L34.4295 3.81402L33.0435 0.965016Z" fill="#D1D5DB"/>
<path d="M46.4185 0.965016C46.3598 0.847683 46.2755 0.754183 46.1655 0.684516C46.0555 0.614849 45.9345 0.580016 45.8025 0.580016C45.6705 0.580016 45.5476 0.614849 45.434 0.684516C45.3203 0.754183 45.2341 0.847683 45.1755 0.965016L43.8005 3.81402L40.7095 4.26502C40.5848 4.27968 40.4711 4.32918 40.3685 4.41352C40.2658 4.49785 40.1961 4.60235 40.1595 4.72702C40.1228 4.85168 40.1191 4.97818 40.1485 5.10652C40.1778 5.23485 40.2401 5.34302 40.3355 5.43102L42.5685 7.65302L42.0405 10.777C42.0185 10.909 42.0331 11.0337 42.0845 11.151C42.1358 11.2683 42.2128 11.3673 42.3155 11.448C42.4181 11.5287 42.5355 11.5727 42.6675 11.58C42.7995 11.5873 42.9241 11.5617 43.0415 11.503L45.8025 10.029L48.5635 11.503C48.6808 11.5617 48.8036 11.5873 48.932 11.58C49.0603 11.5727 49.1795 11.5305 49.2895 11.4535C49.3995 11.3765 49.4783 11.2775 49.526 11.1565C49.5736 11.0355 49.5865 10.909 49.5645 10.777L49.0255 7.65302L51.2695 5.43102C51.3648 5.34302 51.4271 5.23485 51.4565 5.10652C51.4858 4.97818 51.4785 4.85168 51.4345 4.72702C51.3905 4.60235 51.3208 4.49785 51.2255 4.41352C51.1301 4.32918 51.0165 4.27968 50.8845 4.26502L47.8045 3.81402L46.4185 0.965016Z" fill="#D1D5DB"/>
<path d="M59.7935 0.965016C59.7348 0.847683 59.6505 0.754183 59.5405 0.684516C59.4305 0.614849 59.3095 0.580016 59.1775 0.580016C59.0455 0.580016 58.9226 0.614849 58.809 0.684516C58.6953 0.754183 58.6091 0.847683 58.5505 0.965016L57.1755 3.81402L54.0845 4.26502C53.9598 4.27968 53.8461 4.32918 53.7435 4.41352C53.6408 4.49785 53.5711 4.60235 53.5345 4.72702C53.4978 4.85168 53.4941 4.97818 53.5235 5.10652C53.5528 5.23485 53.6151 5.34302 53.7105 5.43102L55.9435 7.65302L55.4155 10.777C55.3935 10.909 55.4081 11.0337 55.4595 11.151C55.5108 11.2683 55.5878 11.3673 55.6905 11.448C55.7931 11.5287 55.9105 11.5727 56.0425 11.58C56.1745 11.5873 56.2991 11.5617 56.4165 11.503L59.1775 10.029L61.9385 11.503C62.0558 11.5617 62.1786 11.5873 62.307 11.58C62.4353 11.5727 62.5545 11.5305 62.6645 11.4535C62.7745 11.3765 62.8533 11.2775 62.901 11.1565C62.9486 11.0355 62.9615 10.909 62.9395 10.777L62.4005 7.65302L64.6445 5.43102C64.7398 5.34302 64.8021 5.23485 64.8315 5.10652C64.8608 4.97818 64.8535 4.85168 64.8095 4.72702C64.7655 4.60235 64.6958 4.49785 64.6005 4.41352C64.5051 4.32918 64.3915 4.27968 64.2595 4.26502L61.1795 3.81402L59.7935 0.965016Z" fill="#D1D5DB"/>
</g>
<g clip-path="url(#clip2_6314_7014)">
<g clip-path="url(#clip3_6314_7014)">
<path d="M6.29346 0.965016C6.2348 0.847683 6.15046 0.754183 6.04046 0.684516C5.93046 0.614849 5.80946 0.580016 5.67746 0.580016C5.54546 0.580016 5.42263 0.614849 5.30896 0.684516C5.19529 0.754183 5.10913 0.847683 5.05046 0.965016L3.67546 3.81402L0.584462 4.26502C0.459795 4.27968 0.346128 4.32918 0.243462 4.41352C0.140795 4.49785 0.0711285 4.60235 0.0344618 4.72702C-0.00220486 4.85168 -0.00587153 4.97818 0.0234618 5.10652C0.0527951 5.23485 0.115128 5.34302 0.210462 5.43102L2.44346 7.65302L1.91546 10.777C1.89346 10.909 1.90813 11.0337 1.95946 11.151C2.0108 11.2683 2.0878 11.3673 2.19046 11.448C2.29313 11.5287 2.41046 11.5727 2.54246 11.58C2.67446 11.5873 2.79913 11.5617 2.91646 11.503L5.67746 10.029L8.43846 11.503C8.55579 11.5617 8.67863 11.5873 8.80696 11.58C8.9353 11.5727 9.05446 11.5305 9.16446 11.4535C9.27446 11.3765 9.3533 11.2775 9.40096 11.1565C9.44863 11.0355 9.46146 10.909 9.43946 10.777L8.90046 7.65302L11.1445 5.43102C11.2398 5.34302 11.3021 5.23485 11.3315 5.10652C11.3608 4.97818 11.3535 4.85168 11.3095 4.72702C11.2655 4.60235 11.1958 4.49785 11.1005 4.41352C11.0051 4.32918 10.8915 4.27968 10.7595 4.26502L7.67946 3.81402L6.29346 0.965016Z" fill="#FACC15"/>
<path d="M19.6685 0.965016C19.6098 0.847683 19.5255 0.754183 19.4155 0.684516C19.3055 0.614849 19.1845 0.580016 19.0525 0.580016C18.9205 0.580016 18.7976 0.614849 18.684 0.684516C18.5703 0.754183 18.4841 0.847683 18.4255 0.965016L17.0505 3.81402L13.9595 4.26502C13.8348 4.27968 13.7211 4.32918 13.6185 4.41352C13.5158 4.49785 13.4461 4.60235 13.4095 4.72702C13.3728 4.85168 13.3691 4.97818 13.3985 5.10652C13.4278 5.23485 13.4901 5.34302 13.5855 5.43102L15.8185 7.65302L15.2905 10.777C15.2685 10.909 15.2831 11.0337 15.3345 11.151C15.3858 11.2683 15.4628 11.3673 15.5655 11.448C15.6681 11.5287 15.7855 11.5727 15.9175 11.58C16.0495 11.5873 16.1741 11.5617 16.2915 11.503L19.0525 10.029L21.8135 11.503C21.9308 11.5617 22.0536 11.5873 22.182 11.58C22.3103 11.5727 22.4295 11.5305 22.5395 11.4535C22.6495 11.3765 22.7283 11.2775 22.776 11.1565C22.8236 11.0355 22.8365 10.909 22.8145 10.777L22.2755 7.65302L24.5195 5.43102C24.6148 5.34302 24.6771 5.23485 24.7065 5.10652C24.7358 4.97818 24.7285 4.85168 24.6845 4.72702C24.6405 4.60235 24.5708 4.49785 24.4755 4.41352C24.3801 4.32918 24.2665 4.27968 24.1345 4.26502L21.0545 3.81402L19.6685 0.965016Z" fill="#FACC15"/>
<path d="M33.0435 0.965016C32.9848 0.847683 32.9005 0.754183 32.7905 0.684516C32.6805 0.614849 32.5595 0.580016 32.4275 0.580016C32.2955 0.580016 32.1726 0.614849 32.059 0.684516C31.9453 0.754183 31.8591 0.847683 31.8005 0.965016L30.4255 3.81402L27.3345 4.26502C27.2098 4.27968 27.0961 4.32918 26.9935 4.41352C26.8908 4.49785 26.8211 4.60235 26.7845 4.72702C26.7478 4.85168 26.7441 4.97818 26.7735 5.10652C26.8028 5.23485 26.8651 5.34302 26.9605 5.43102L29.1935 7.65302L28.6655 10.777C28.6435 10.909 28.6581 11.0337 28.7095 11.151C28.7608 11.2683 28.8378 11.3673 28.9405 11.448C29.0431 11.5287 29.1605 11.5727 29.2925 11.58C29.4245 11.5873 29.5491 11.5617 29.6665 11.503L32.4275 10.029L35.1885 11.503C35.3058 11.5617 35.4286 11.5873 35.557 11.58C35.6853 11.5727 35.8045 11.5305 35.9145 11.4535C36.0245 11.3765 36.1033 11.2775 36.151 11.1565C36.1986 11.0355 36.2115 10.909 36.1895 10.777L35.6505 7.65302L37.8945 5.43102C37.9898 5.34302 38.0521 5.23485 38.0815 5.10652C38.1108 4.97818 38.1035 4.85168 38.0595 4.72702C38.0155 4.60235 37.9458 4.49785 37.8505 4.41352C37.7551 4.32918 37.6415 4.27968 37.5095 4.26502L34.4295 3.81402L33.0435 0.965016Z" fill="#FACC15"/>
<path d="M46.4185 0.965016C46.3598 0.847683 46.2755 0.754183 46.1655 0.684516C46.0555 0.614849 45.9345 0.580016 45.8025 0.580016C45.6705 0.580016 45.5476 0.614849 45.434 0.684516C45.3203 0.754183 45.2341 0.847683 45.1755 0.965016L43.8005 3.81402L40.7095 4.26502C40.5848 4.27968 40.4711 4.32918 40.3685 4.41352C40.2658 4.49785 40.1961 4.60235 40.1595 4.72702C40.1228 4.85168 40.1191 4.97818 40.1485 5.10652C40.1778 5.23485 40.2401 5.34302 40.3355 5.43102L42.5685 7.65302L42.0405 10.777C42.0185 10.909 42.0331 11.0337 42.0845 11.151C42.1358 11.2683 42.2128 11.3673 42.3155 11.448C42.4181 11.5287 42.5355 11.5727 42.6675 11.58C42.7995 11.5873 42.9241 11.5617 43.0415 11.503L45.8025 10.029L48.5635 11.503C48.6808 11.5617 48.8036 11.5873 48.932 11.58C49.0603 11.5727 49.1795 11.5305 49.2895 11.4535C49.3995 11.3765 49.4783 11.2775 49.526 11.1565C49.5736 11.0355 49.5865 10.909 49.5645 10.777L49.0255 7.65302L51.2695 5.43102C51.3648 5.34302 51.4271 5.23485 51.4565 5.10652C51.4858 4.97818 51.4785 4.85168 51.4345 4.72702C51.3905 4.60235 51.3208 4.49785 51.2255 4.41352C51.1301 4.32918 51.0165 4.27968 50.8845 4.26502L47.8045 3.81402L46.4185 0.965016Z" fill="#FACC15"/>
</g>
</g>
</g>
<defs>
<clipPath id="clip0_6314_7014">
<rect width="66.88" height="11" fill="white" transform="translate(0 0.580017)"/>
</clipPath>
<clipPath id="clip1_6314_7014">
<rect width="66.88" height="11" fill="white" transform="matrix(1 0 0 -1 0 11.58)"/>
</clipPath>
<clipPath id="clip2_6314_7014">
<rect width="40.13" height="11" fill="white" transform="translate(0 0.580017)"/>
</clipPath>
<clipPath id="clip3_6314_7014">
<rect width="66.88" height="11" fill="white" transform="matrix(1 0 0 -1 0 11.58)"/>
</clipPath>
</defs>
</svg>
