<svg width="14" height="14" viewBox="0 0 14 14" fill="none" xmlns="http://www.w3.org/2000/svg">
<g clip-path="url(#clip0_7606_846)">
<path d="M7.15411 1.162C6.73411 1.162 6.34445 1.267 5.98511 1.477C5.62578 1.687 5.34111 1.97167 5.13111 2.331C4.92111 2.69033 4.81611 3.08 4.81611 3.5H3.62611C3.62611 2.86533 3.78245 2.27967 4.09511 1.743C4.40778 1.20633 4.83245 0.781666 5.36911 0.469C5.90578 0.156333 6.49145 0 7.12611 0C7.76078 0 8.34645 0.156333 8.88311 0.469C9.41978 0.781666 9.84445 1.20633 10.1571 1.743C10.4698 2.27967 10.6261 2.86533 10.6261 3.5H12.9221C13.2581 3.5 13.5428 3.619 13.7761 3.857C14.0094 4.095 14.1261 4.38667 14.1261 4.732C14.1261 4.80667 14.1214 4.87667 14.1121 4.942L12.8101 12.474C12.7354 12.9127 12.5301 13.2767 12.1941 13.566C11.8581 13.8553 11.4708 14 11.0321 14H3.22011C2.78145 14 2.39411 13.8553 2.05811 13.566C1.72211 13.2767 1.51678 12.9127 1.44211 12.474L0.140113 4.956C0.0841126 4.62 0.151779 4.312 0.343113 4.032C0.534446 3.752 0.793446 3.57933 1.12011 3.514C1.18545 3.50467 1.25545 3.5 1.33011 3.5H9.49211C9.49211 3.08 9.38711 2.69033 9.17711 2.331C8.96711 1.97167 8.68245 1.687 8.32311 1.477C7.96378 1.267 7.57411 1.162 7.15411 1.162ZM12.9221 4.662H1.33011C1.32078 4.662 1.30678 4.68067 1.28811 4.718V4.746L2.59011 12.278C2.61811 12.4273 2.68345 12.5533 2.78611 12.656C2.88878 12.7587 3.01011 12.8147 3.15011 12.824L3.22011 12.838H11.0321C11.1721 12.838 11.3004 12.7937 11.4171 12.705C11.5338 12.6163 11.6108 12.4973 11.6481 12.348L12.9641 4.732C12.9641 4.69467 12.9548 4.676 12.9361 4.676L12.9221 4.662Z" fill="white"/>
</g>
<defs>
<clipPath id="clip0_7606_846">
<rect width="14" height="14" fill="white" transform="matrix(1 0 0 -1 0 14)"/>
</clipPath>
</defs>
</svg>
