<svg width="13" height="6" viewBox="0 0 13 6" fill="none" xmlns="http://www.w3.org/2000/svg">
<path d="M12.8643 2.69784C12.8643 2.66984 12.8526 2.64417 12.8293 2.62084C12.806 2.59751 12.7803 2.58584 12.7523 2.58584L10.4143 0.24784C10.321 0.16384 10.2136 0.12184 10.0923 0.12184C9.97098 0.12184 9.86365 0.16384 9.77031 0.24784C9.67698 0.33184 9.63265 0.439173 9.63731 0.56984C9.64198 0.700506 9.68631 0.80784 9.77031 0.89184L11.3523 2.47384H0.782313C0.660979 2.47384 0.553646 2.51584 0.460313 2.59984C0.366979 2.68384 0.320312 2.79817 0.320312 2.94284C0.320312 3.08751 0.362313 3.19951 0.446313 3.27884C0.530313 3.35817 0.642313 3.39784 0.782313 3.39784H11.4083L9.82631 4.97984C9.74231 5.06384 9.70031 5.16884 9.70031 5.29484C9.70031 5.42084 9.74231 5.53051 9.82631 5.62384C9.85431 5.65184 9.89631 5.67751 9.95231 5.70084C10.0083 5.72417 10.0643 5.73584 10.1203 5.73584C10.1763 5.73584 10.2323 5.72417 10.2883 5.70084C10.3443 5.67751 10.3863 5.65184 10.4143 5.62384L12.7523 3.28584C12.771 3.26717 12.7896 3.24384 12.8083 3.21584C12.827 3.18784 12.8456 3.17384 12.8643 3.17384C12.8923 3.05251 12.9063 2.95917 12.9063 2.89384C12.9063 2.82851 12.8923 2.76317 12.8643 2.69784Z" fill="white"/>
</svg>
