<svg width="15" height="14" viewBox="0 0 15 14" fill="none" xmlns="http://www.w3.org/2000/svg">
<g clip-path="url(#clip0_7606_132)">
<path d="M12.8643 6.81796C12.8643 6.78996 12.8526 6.76429 12.8293 6.74096C12.806 6.71762 12.7803 6.70596 12.7523 6.70596L10.4143 4.36796C10.321 4.28396 10.2136 4.24196 10.0923 4.24196C9.97098 4.24196 9.86365 4.28396 9.77031 4.36796C9.67698 4.45196 9.63265 4.55929 9.63731 4.68996C9.64198 4.82062 9.68631 4.92796 9.77031 5.01196L11.3523 6.59396H0.782313C0.660979 6.59396 0.553646 6.63596 0.460313 6.71996C0.366979 6.80396 0.320312 6.91829 0.320312 7.06296C0.320312 7.20762 0.362313 7.31962 0.446313 7.39896C0.530313 7.47829 0.642312 7.51796 0.782313 7.51796H11.4083L9.82631 9.09996C9.74231 9.18396 9.70031 9.28896 9.70031 9.41496C9.70031 9.54096 9.74231 9.65062 9.82631 9.74396C9.85431 9.77196 9.89631 9.79762 9.95231 9.82096C10.0083 9.84429 10.0643 9.85596 10.1203 9.85596C10.1763 9.85596 10.2323 9.84429 10.2883 9.82096C10.3443 9.79762 10.3863 9.77196 10.4143 9.74396L12.7523 7.40596C12.771 7.38729 12.7896 7.36396 12.8083 7.33596C12.827 7.30796 12.8456 7.29396 12.8643 7.29396C12.8923 7.17262 12.9063 7.07929 12.9063 7.01396C12.9063 6.94862 12.8923 6.88329 12.8643 6.81796Z" fill="#212529"/>
</g>
<defs>
<clipPath id="clip0_7606_132">
<rect width="14" height="14" fill="white" transform="matrix(1 0 0 -1 0.199219 14)"/>
</clipPath>
</defs>
</svg>
