<svg width="19" height="16" viewBox="0 0 19 16" fill="none" xmlns="http://www.w3.org/2000/svg">
<path d="M16.9595 0.459961H0.719531C0.519531 0.486628 0.352865 0.579961 0.219531 0.739962C0.0861979 0.899961 0.0195312 1.07996 0.0195312 1.27996C0.0195312 1.47996 0.0861979 1.66329 0.219531 1.82996C0.352865 1.99663 0.519531 2.09329 0.719531 2.11996H3.93953L3.35953 9.49996V9.63996C3.35953 10.0933 3.52286 10.4833 3.84953 10.81C4.1762 11.1366 4.5662 11.3 5.01953 11.3H15.2395C15.6395 11.3 15.9895 11.1766 16.2895 10.93C16.5895 10.6833 16.7795 10.38 16.8595 10.02L18.5795 2.49996C18.6062 2.33996 18.6195 2.21329 18.6195 2.11996C18.6195 1.65329 18.4595 1.25996 18.1395 0.939961C17.8195 0.619962 17.4262 0.459961 16.9595 0.459961ZM15.2395 9.61996H5.01953L5.59953 2.11996H16.9595L15.2395 9.61996ZM6.55953 15.46C7.0262 15.46 7.42286 15.2966 7.74953 14.97C8.0762 14.6433 8.23953 14.2466 8.23953 13.78C8.23953 13.3133 8.0762 12.92 7.74953 12.6C7.42286 12.28 7.0262 12.12 6.55953 12.12C6.1062 12.12 5.7162 12.28 5.38953 12.6C5.06286 12.92 4.89953 13.3133 4.89953 13.78C4.89953 14.2466 5.06286 14.6433 5.38953 14.97C5.7162 15.2966 6.1062 15.46 6.55953 15.46ZM14.0595 15.46C14.5262 15.46 14.9229 15.2966 15.2495 14.97C15.5762 14.6433 15.7395 14.2466 15.7395 13.78C15.7395 13.3133 15.5762 12.92 15.2495 12.6C14.9229 12.28 14.5262 12.12 14.0595 12.12C13.6062 12.12 13.2162 12.28 12.8895 12.6C12.5629 12.92 12.3995 13.3133 12.3995 13.78C12.3995 14.2466 12.5629 14.6433 12.8895 14.97C13.2162 15.2966 13.6062 15.46 14.0595 15.46Z" fill="white"/>
</svg>
